<svg fill="#ffffff" role="img" viewBox="0 0 24 24" xmlns="http://www.w3.org/2000/svg"><title>Argo CD</title><path d="M12 0C5.373 0 0 5.373 0 12s5.373 12 12 12 12-5.373 12-12S18.627 0 12 0zm0 2.4c5.302 0 9.6 4.298 9.6 9.6s-4.298 9.6-9.6 9.6S2.4 17.302 2.4 12 6.698 2.4 12 2.4zm0 1.2c-4.638 0-8.4 3.762-8.4 8.4s3.762 8.4 8.4 8.4 8.4-3.762 8.4-8.4-3.762-8.4-8.4-8.4zm0 2.4c3.314 0 6 2.686 6 6s-2.686 6-6 6-6-2.686-6-6 2.686-6 6-6zm0 1.2c-2.65 0-4.8 2.15-4.8 4.8s2.15 4.8 4.8 4.8 4.8-2.15 4.8-4.8-2.15-4.8-4.8-4.8zm0 1.2c1.988 0 3.6 1.612 3.6 3.6s-1.612 3.6-3.6 3.6-3.6-1.612-3.6-3.6 1.612-3.6 3.6-3.6z"/></svg>