<svg fill="#ffffff" role="img" viewBox="0 0 24 24" xmlns="http://www.w3.org/2000/svg"><title>Jenkins</title><path d="M11.999 0C5.373 0 0 5.373 0 12s5.373 12 11.999 12S24 18.627 24 12 18.625 0 11.999 0zm-.792 4.327c.173-.027.369.01.521.088.153.08.262.203.312.35.05.148.04.31-.03.46-.07.15-.19.28-.35.37-.16.09-.35.13-.54.11-.19-.02-.37-.1-.5-.22-.13-.12-.21-.28-.22-.45-.01-.17.05-.34.17-.48.12-.14.29-.23.49-.26.05-.01.1-.01.15 0zm-3.782.9c.09-.01.18 0 .27.03.09.03.17.08.24.15.07.07.12.15.15.24.03.09.04.18.03.27-.01.09-.04.18-.09.26-.05.08-.12.15-.2.2-.08.05-.17.09-.27.1-.1.01-.19 0-.28-.03-.09-.03-.17-.08-.24-.15-.07-.07-.12-.15-.15-.24-.03-.09-.04-.18-.03-.27.01-.09.04-.18.09-.26.05-.08.12-.15.2-.2.08-.05.17-.09.27-.1zm7.093.2c.1-.02.2-.02.3 0 .1.02.19.06.27.12.08.06.15.14.2.23.05.09.08.19.09.29.01.1 0 .2-.03.3-.03.1-.08.19-.15.26-.07.07-.15.13-.25.17-.1.04-.2.06-.3.05-.1-.01-.2-.04-.29-.09-.09-.05-.17-.12-.23-.21-.06-.09-.1-.19-.12-.29-.02-.1-.01-.21.02-.31.03-.1.09-.19.16-.27.07-.08.16-.14.26-.18.1-.04.2-.06.3-.06zm-8.4 1.32c.09-.01.18 0 .27.03.09.03.17.08.24.15.07.07.12.15.15.24.03.09.04.18.03.27-.01.09-.04.18-.09.26-.05.08-.12.15-.2.2-.08.05-.17.09-.27.1-.1.01-.19 0-.28-.03-.09-.03-.17-.08-.24-.15-.07-.07-.12-.15-.15-.24-.03-.09-.04-.18-.03-.27.01-.09.04-.18.09-.26.05-.08.12-.15.2-.2.08-.05.17-.09.27-.1zm2.05 1.05c.36-.05.73.05 1.02.28.29.23.48.56.53.93.05.37-.05.74-.28 1.03-.23.29-.56.48-.93.53-.37.05-.74-.05-1.03-.28-.29-.23-.48-.56-.53-.93-.05-.37.05-.74.28-1.03.23-.29.56-.48.93-.53zm5.89.15c.37-.05.74.05 1.03.28.29.23.48.56.53.93.05.37-.05.74-.28 1.03-.23.29-.56.48-.93.53-.37.05-.74-.05-1.03-.28-.29-.23-.48-.56-.53-.93-.05-.37.05-.74.28-1.03.23-.29.56-.48.93-.53zm-2.95 2.1c.5-.07 1.01.07 1.41.39.4.32.66.77.73 1.27.07.5-.07 1.01-.39 1.41-.32.4-.77.66-1.27.73-.5.07-1.01-.07-1.41-.39-.4-.32-.66-.77-.73-1.27-.07-.5.07-1.01.39-1.41.32-.4.77-.66 1.27-.73zm-4.5 3.5c.25-.04.51.03.71.2.2.17.33.41.36.67.03.26-.05.52-.22.72-.17.2-.41.33-.67.36-.26.03-.52-.05-.72-.22-.2-.17-.33-.41-.36-.67-.03-.26.05-.52.22-.72.17-.2.41-.33.67-.36zm8.5.5c.25-.04.51.03.71.2.2.17.33.41.36.67.03.26-.05.52-.22.72-.17.2-.41.33-.67.36-.26.03-.52-.05-.72-.22-.2-.17-.33-.41-.36-.67-.03-.26.05-.52.22-.72.17-.2.41-.33.67-.36zm-4.25 2c.37-.05.74.05 1.03.28.29.23.48.56.53.93.05.37-.05.74-.28 1.03-.23.29-.56.48-.93.53-.37.05-.74-.05-1.03-.28-.29-.23-.48-.56-.53-.93-.05-.37.05-.74.28-1.03.23-.29.56-.48.93-.53z"/></svg>