<svg fill="#0078D4" role="img" viewBox="0 0 24 24" xmlns="http://www.w3.org/2000/svg"><title>Microsoft Azure</title>
    <path fill="#0078D4" d="M8.335 1.636h6.51l-6.758 20.022a1.038 1.038 0 0 1-.983.706H2.037a1.036 1.036 0 0 1-.982-1.368L7.352 2.342a1.038 1.038 0 0 1 .983-.706z"/>
    <path fill="#0078D4" d="M17.794 15.065h-10.323a.478.478 0 0 0-.326.827l6.633 6.191a1.043 1.043 0 0 0 .712.28h5.845z"/>
    <path fill="#0078D4" d="M8.335 1.636a1.03 1.03 0 0 0-.986.72L1.063 20.979a1.035 1.035 0 0 0 .977 1.385h5.197a1.111 1.111 0 0 0 .853-.725l1.254-3.694 4.478 4.176a1.059 1.059 0 0 0 .667.243H20.31l-2.555-7.293-7.445.002L14.868 1.636z"/>
    <path fill="#0078D4" d="M16.649 2.341a1.036 1.036 0 0 0-.982-.705H8.412a1.037 1.037 0 0 1 .982.705l6.296 18.655a1.037 1.037 0 0 1-.982 1.368h7.255a1.037 1.037 0 0 0 .982-1.368z"/>
</svg>