<svg fill="#ffffff" role="img" viewBox="0 0 24 24" xmlns="http://www.w3.org/2000/svg"><title>Grafana</title><path d="M23.668 11.854c-.096-.482-.224-.867-.32-1.093-.128-.257-.384-.61-.64-.866-.256-.225-.736-.578-1.152-.77-.128-.064-.48-.193-.832-.321-.16-.064-.48-.16-.8-.225-.224-.064-.576-.128-.832-.16-.128-.032-.384-.064-.576-.096-.096 0-.256-.032-.384-.032-.064 0-.16-.032-.224-.032-.032 0-.096 0-.128-.032h-.032c-.032-.096-.064-.192-.096-.288-.128-.385-.288-.77-.48-1.155-.16-.32-.352-.674-.576-.994-.192-.288-.416-.577-.64-.833-.192-.224-.416-.449-.64-.641-.192-.16-.416-.353-.64-.513-.192-.128-.416-.288-.64-.416-.192-.128-.416-.256-.64-.353-.192-.096-.416-.192-.64-.288-.192-.064-.416-.16-.64-.224-.192-.064-.416-.096-.64-.16-.192-.032-.416-.064-.64-.096-.192-.032-.416-.032-.64-.032-.192 0-.416 0-.64.032-.192.032-.416.064-.608.096-.192.064-.416.096-.608.16-.192.064-.416.16-.608.224-.192.096-.416.192-.608.288-.192.096-.416.224-.608.353-.192.128-.416.256-.608.416-.192.16-.416.32-.608.513-.192.192-.416.416-.608.64-.192.257-.384.546-.576.834-.16.32-.352.673-.512.993-.128.385-.288.77-.416 1.155-.032.096-.064.192-.096.288h-.032c-.032 0-.096 0-.128.032-.064 0-.16.032-.224.032-.128 0-.256.032-.384.032-.192.032-.448.064-.576.096-.256.032-.608.096-.832.16-.32.064-.64.16-.8.225-.352.128-.704.256-.832.32-.416.193-.896.546-1.152.77-.256.257-.512.61-.64.867-.096.225-.224.61-.32 1.093-.064.385-.096.93-.064 1.38.032.353.096.866.192 1.284.064.288.192.737.32 1.06.096.257.288.674.448.963.128.225.352.578.544.834.16.224.416.545.608.77.16.192.416.48.608.672.16.16.416.416.608.577.16.128.416.352.608.48.16.128.416.32.608.449.16.096.416.256.608.352.16.096.416.224.608.32.16.064.416.16.608.225.16.064.416.128.608.16.16.032.416.064.608.096.16 0 .416.032.608.032.16 0 .416 0 .608-.032.16-.032.416-.064.576-.096.16-.032.416-.096.576-.16.16-.064.416-.16.576-.225.16-.096.416-.224.576-.32.16-.096.416-.256.576-.352.16-.128.416-.32.576-.449.16-.128.416-.352.576-.48.16-.16.416-.385.576-.577.16-.192.416-.48.576-.672.16-.225.416-.545.544-.77.128-.256.352-.706.448-.963.096-.32.256-.77.32-1.06.064-.417.16-.93.192-1.283.032-.45 0-.995-.064-1.38zm-11.636 7.39c-4.388 0-7.94-3.553-7.94-7.94 0-4.388 3.552-7.94 7.94-7.94 4.387 0 7.94 3.552 7.94 7.94 0 4.387-3.553 7.94-7.94 7.94z"/></svg>