<svg fill="#ffffff" role="img" viewBox="0 0 24 24" xmlns="http://www.w3.org/2000/svg"><title>Helm</title><path d="M12.031 0a12 12 0 00-.062 0A12 12 0 000 12a12 12 0 0012 12 12 12 0 0012-12A12 12 0 0012.03 0zm-.062 2.25A9.75 9.75 0 0121.75 12a9.75 9.75 0 01-9.75 9.75A9.75 9.75 0 012.25 12 9.75 9.75 0 0111.969 2.25zM12 4.5a1.5 1.5 0 00-1.5 1.5v3a1.5 1.5 0 001.5 1.5 1.5 1.5 0 001.5-1.5V6A1.5 1.5 0 0012 4.5zm-4.5 3a1.5 1.5 0 00-1.5 1.5v6a1.5 1.5 0 001.5 1.5 1.5 1.5 0 001.5-1.5V9a1.5 1.5 0 00-1.5-1.5zm9 0a1.5 1.5 0 00-1.5 1.5v6a1.5 1.5 0 001.5 1.5 1.5 1.5 0 001.5-1.5V9a1.5 1.5 0 00-1.5-1.5zM12 13.5a1.5 1.5 0 00-1.5 1.5v3a1.5 1.5 0 001.5 1.5 1.5 1.5 0 001.5-1.5v-3a1.5 1.5 0 00-1.5-1.5z"/></svg>