<svg fill="#ffffff" role="img" viewBox="0 0 24 24" xmlns="http://www.w3.org/2000/svg"><title>GitLab</title><path d="m23.6 9.593-.033-.086L20.3.98a.851.851 0 0 0-.336-.405.87.87 0 0 0-.52-.148.87.87 0 0 0-.52.161.851.851 0 0 0-.324.417l-2.216 6.78H7.62L5.404 1.005a.851.851 0 0 0-.324-.417.87.87 0 0 0-.52-.16.87.87 0 0 0-.52.147.851.851 0 0 0-.337.405L.437 9.507l-.033.086a6.066 6.066 0 0 0 2.012 7.01l.012.009.03.022 4.98 3.727 2.462 1.863 1.5 1.134a1.009 1.009 0 0 0 1.22 0l1.5-1.134 2.462-1.863 5.01-3.749.013-.01a6.066 6.066 0 0 0 2.012-6.999z"/></svg>