<svg fill="#ffffff" role="img" viewBox="0 0 24 24" xmlns="http://www.w3.org/2000/svg"><title>Redis</title><path d="M23.99 9.593c-.012.299-.249.64-.713.963-1.086.756-6.7 2.878-7.898 3.5-1.198.62-1.862.612-2.81.14-1.26-.627-6.94-2.875-8.012-3.47-.536-.297-.81-.594-.81-.889v2.636c0 .295.274.592.81.889 1.072.595 6.752 2.843 8.012 3.47.948.472 1.612.48 2.81-.14 1.198-.622 6.812-2.744 7.898-3.5.554-.386.786-.752.798-1.088V9.593h-.085zm0-3.385c-.012.299-.249.64-.713.963-1.086.756-6.7 2.878-7.898 3.5-1.198.62-1.862.612-2.81.14-1.26-.627-6.94-2.875-8.012-3.47-.536-.297-.81-.594-.81-.889v2.636c0 .295.274.592.81.889 1.072.595 6.752 2.843 8.012 3.47.948.472 1.612.48 2.81-.14 1.198-.622 6.812-2.744 7.898-3.5.554-.386.786-.752.798-1.088V6.208h-.085zm0-3.385c.012-.295-.232-.535-.713-.778-1.086-.55-6.7-2.618-7.898-2.9-1.198-.28-1.862-.28-2.81 0-1.26.373-6.94 2.35-8.012 2.9-.536.243-.822.483-.81.778v2.636c0 .295.274.592.81.889 1.072.595 6.752 2.843 8.012 3.47.948.472 1.612.48 2.81-.14 1.198-.622 6.812-2.744 7.898-3.5.554-.386.786-.752.798-1.088V2.823h-.085z"/></svg>