<svg fill="#ffffff" role="img" viewBox="0 0 24 24" xmlns="http://www.w3.org/2000/svg"><title>Prometheus</title><path d="M12 0C5.373 0 0 5.373 0 12s5.373 12 12 12 12-5.373 12-12S18.627 0 12 0zm0 2.25c5.385 0 9.75 4.365 9.75 9.75s-4.365 9.75-9.75 9.75S2.25 17.385 2.25 12 6.615 2.25 12 2.25zm0 1.5c-2.708 0-4.875 2.167-4.875 4.875h1.5c0-1.864 1.511-3.375 3.375-3.375s3.375 1.511 3.375 3.375h1.5c0-2.708-2.167-4.875-4.875-4.875zm-3.75 6v1.5h7.5v-1.5h-7.5zm0 3v1.5h7.5v-1.5h-7.5zm0 3v1.5h7.5v-1.5h-7.5zm1.5 3v1.5h4.5v-1.5h-4.5z"/></svg>