<svg fill="#ffffff" role="img" viewBox="0 0 24 24" xmlns="http://www.w3.org/2000/svg"><title>Amazon Web Services</title>
	<path fill="#ffffff" d="M6.8 5.2c0 .3 0 .5.1.7.1.2.1.4.3.6 0 .1.1.1.1.2 0 .1 0 .2-.2.2l-.5.3c-.1 0-.1.1-.2.1-.1 0-.2 0-.2-.1-.1-.1-.2-.2-.2-.3-.1-.1-.2-.3-.2-.5-.6.7-1.4 1.1-2.3 1.1-.7 0-1.2-.2-1.6-.6-.4-.4-.6-.9-.6-1.5 0-.7.2-1.2.7-1.6.5-.4 1.1-.6 1.9-.6.3 0 .5 0 .8.1.3 0 .6.1.9.2v-.6c0-.6-.1-1-.4-1.3-.3-.2-.7-.4-1.3-.4-.3 0-.6 0-.8.1-.3.1-.6.2-.8.3-.1.1-.2.1-.3.1 0 0-.1 0-.1 0-.1 0-.2-.1-.2-.2v-.4c0-.1 0-.2.1-.3 0-.1.1-.1.2-.2.3-.1.6-.3 1-.4.4-.1.8-.1 1.2-.1.9 0 1.6.2 2.1.6.4.4.7 1.1.7 1.9v2.1zm-2.1 1.2c.3 0 .5-.1.8-.1.3-.1.5-.3.7-.5.1-.1.2-.3.3-.5 0-.2.1-.4.1-.7v-.3c-.2-.1-.5-.1-.7-.1-.3 0-.5 0-.7 0-.5 0-.9.1-1.2.3-.3.2-.4.5-.4.9 0 .4.1.6.3.8.2.2.5.2.8.2zm10 1.5c-.1 0-.2 0-.3-.1 0-.1-.1-.2-.1-.3l-1.9-6.2c-.1-.2-.1-.3-.1-.3 0-.1.1-.2.2-.2h.8c.2 0 .3 0 .3.1.1.1.1.2.1.3l1.3 5.3 1.2-5.3c0-.2.1-.3.1-.3.1-.1.2-.1.3-.1h.6c.2 0 .3 0 .3.1.1.1.1.2.1.3l1.3 5.4 1.4-5.4c.1-.2.1-.3.2-.3.1-.1.2-.1.3-.1h.7c.1 0 .2.1.2.2 0 0 0 .1 0 .1 0 .1 0 .1-.1.2l-1.9 6.2c-.1.2-.1.3-.1.3-.1.1-.2.1-.3.1h-.7c-.2 0-.3 0-.3-.1-.1-.1-.1-.2-.1-.3l-1.2-5.2-1.2 5.2c0 .2-.1.3-.1.3-.1.1-.2.1-.3.1h-.7zm16.1.2c-.4 0-.8-.1-1.2-.1-.4-.1-.7-.2-.9-.3-.1-.1-.2-.1-.2-.2 0-.1-.1-.1-.1-.2v-.4c0-.2.1-.2.2-.2.1 0 .1 0 .1 0 .1 0 .1 0 .2.1.3.1.6.2.9.3.3.1.6.1.9.1.5 0 .9-.1 1.2-.3.3-.2.4-.4.4-.8 0-.2-.1-.4-.2-.6-.1-.1-.4-.3-.8-.4l-1.2-.4c-.6-.2-1-.5-1.3-.8-.3-.4-.4-.7-.4-1.2 0-.3.1-.6.2-.9.1-.3.3-.5.6-.7.2-.2.5-.3.8-.4.3-.1.7-.1 1-.1.2 0 .4 0 .5 0 .2 0 .4.1.5.1.2 0 .3.1.5.1.1.1.3.1.3.1.1.1.2.1.2.2 0 .1.1.2.1.3v.4c0 .2-.1.2-.2.2-.1 0-.2 0-.3-.1-.5-.2-1-.3-1.5-.3-.5 0-.8.1-1.1.2-.3.2-.4.4-.4.7 0 .2.1.4.2.6.2.1.5.3.9.4l1.1.4c.6.2 1 .4 1.2.8.2.3.4.7.4 1.1 0 .3-.1.7-.2.9-.1.3-.3.5-.6.7-.2.2-.5.3-.9.4-.4.1-.8.1-1.2.1z"/>
	<path fill="#ffffff" d="M21.6 11.3c-2.6 1.9-6.4 2.9-9.6 2.9-4.5 0-8.6-1.7-11.7-4.5-.2-.2 0-.5.3-.3 3.3 1.9 7.5 3.1 11.7 3.1 2.9 0 6-.6 8.9-1.8.4-.2.7.3.4.6z"/>
	<path fill="#ffffff" d="M22.6 10.1c-.3-.4-2.2-.2-3 0-.3 0-.3-.2-.1-.4 1.5-1 3.9-.7 4.2-.4.3.4-.1 2.8-1.5 4-.2.2-.4.1-.3-.1.2-1.7.7-3.7-.3-3.1z"/>
</svg>